<?xml version="1.0" encoding="UTF-8"?>
<svg width="24.1242994px" height="24px" viewBox="0 0 24.1242994 24" version="1.1" xmlns="http://www.w3.org/2000/svg" xmlns:xlink="http://www.w3.org/1999/xlink">
    <title>selectToolIcon</title>
    <g id="selectToolIcon" stroke="none" stroke-width="1" fill="none" fill-rule="evenodd">
        <path d="M7.01004679,20.1687167 L2.2974423,4.87342862 C1.98241828,3.83188665 2.95966754,2.8546374 3.99476994,3.17610097 L19.2834744,7.88232763 C20.5114756,8.26166493 20.5693287,9.98475081 19.367055,10.4412805 L14.9116213,12.1579063 L19.67566,16.9219449 C20.4150365,17.6741594 20.4150365,18.889302 19.67566,19.6415782 L18.7627035,20.5545347 C18.010489,21.2939112 16.7889069,21.2939112 16.0430702,20.5545347 L11.272448,15.7839125 L9.55582224,20.2393461 C9.09933368,21.4351906 7.3762478,21.3773168 6.99686936,20.1557656 L7.01004679,20.1687167 Z M3.59605225,4.40414324 C3.55747662,4.40414324 3.51247172,4.44914814 3.52533026,4.50058231 L8.23155692,19.7892868 C8.25084473,19.8471503 8.33442526,19.8535795 8.36014235,19.7957161 L10.0767681,15.3336989 C10.4110902,14.4657369 11.5297834,14.2278642 12.1855691,14.8836499 L16.9496078,19.6476885 C17.2003596,19.8920008 17.6053935,19.8920008 17.8561248,19.6476885 L18.7690813,18.734732 C19.0133936,18.4904197 19.0133936,18.0789463 18.7690813,17.828215 L14.0050426,13.0641764 C13.3492569,12.4083907 13.5871503,11.2896974 14.4550916,10.9553753 L18.9105253,9.23874959 C18.974818,9.2130325 18.9683887,9.12945197 18.9105253,9.11016416 L3.59605225,4.40414324 Z" id="Shape-Copy-6" stroke="#000000" stroke-width="0.5" fill="#000000" fill-rule="nonzero" transform="translate(11.237389, 12.111458) rotate(17.000000) translate(-11.237389, -12.111458) "></path>
    </g>
</svg>