<?xml version="1.0" encoding="UTF-8"?>
<svg width="24px" height="24px" viewBox="0 0 24 24" version="1.1" xmlns="http://www.w3.org/2000/svg" xmlns:xlink="http://www.w3.org/1999/xlink">
	<path d="M16.7105398,2 C17.4107712,2 18.0557264,2.36572672 18.4168876,2.9567034 L18.4950907,3.09701722 L22.5430907,11.0970172 C22.8016296,11.6079636 22.8274835,12.2021869 22.6206524,12.7297886 L22.5430907,12.9029828 L18.4950907,20.9029828 C18.1789423,21.5277821 17.5614216,21.9381373 16.8710464,21.9935717 L16.7105398,22 L7.28946024,22 C6.58922884,22 5.94427364,21.6342733 5.58311241,21.0432966 L5.50490929,20.9029828 L1.45690929,12.9029828 C1.19837043,12.3920364 1.17251654,11.7978131 1.37934763,11.2702114 L1.45690929,11.0970172 L5.50490929,3.09701722 C5.82105773,2.47221792 6.43857843,2.06186268 7.12895363,2.00642825 L7.28946024,2 L16.7105398,2 Z M20.758,11.999 L16.7105398,4 L7.28946024,4 L3.24146024,12 L7.28946024,20 L16.7105398,20 L20.758,11.999 Z" id="Path-4-Copy-3" fill="#000000" fill-rule="nonzero"></path>
</svg>
