<?xml version="1.0" encoding="UTF-8"?>
<svg width="24px" height="24px" viewBox="0 0 24 24" version="1.1" xmlns="http://www.w3.org/2000/svg" xmlns:xlink="http://www.w3.org/1999/xlink">
	<path d="M12.517868,0.512132034 C12.6182885,0.411711502 12.772189,0.397365712 12.8878895,0.469094663 L12.942132,0.512132034 L23.7228932,11.2928932 C24.0833772,11.6533772 24.1111067,12.2206082 23.8060818,12.6128994 L23.7228932,12.7071068 L12.942132,23.487868 C12.8858711,23.5441289 12.8095649,23.5757359 12.73,23.5757359 C12.5879839,23.5757359 12.4690158,23.4770558 12.4379232,23.3445232 L12.43,23.2757359 L12.43,17 L1.43,17 C0.917164161,17 0.494492839,16.6139598 0.436727731,16.1166211 L0.43,16 L0.43,8 C0.43,7.48716416 0.81604019,7.06449284 1.31337887,7.00672773 L1.43,7 L12.43,7 L12.43,0.724264069 C12.43,0.644699122 12.4616071,0.568392948 12.517868,0.512132034 Z M14.43,4.829 L14.43,9 L2.43,9 L2.43,15 L14.43,15 L14.43,19.17 L21.601,12 L14.43,4.829 Z" id="Path-2-Copy-7" fill="#000000" fill-rule="nonzero" transform="translate(12.222893, 12.000000) scale(-1, 1) translate(-12.222893, -12.000000) "></path>
</svg>
