<?xml version="1.0" encoding="UTF-8"?>
<svg width="24px" height="24px" viewBox="0 0 24 24" version="1.1" xmlns="http://www.w3.org/2000/svg" xmlns:xlink="http://www.w3.org/1999/xlink">
	<path d="M22,2 C22.5522847,2 23,2.44771525 23,3 L23,17.0097087 C23,17.5619935 22.5522847,18.0097087 22,18.0097087 L11.1176471,18.0097087 L4.83780954,23.4292592 C4.67056485,23.5735927 4.4179808,23.5550195 4.27364729,23.3877748 C4.21095959,23.3151362 4.17647059,23.2223843 4.17647059,23.1264359 L4.17647059,18.0097087 L2,18.0097087 C1.44771525,18.0097087 1,17.5619935 1,17.0097087 L1,3 C1,2.44771525 1.44771525,2 2,2 L22,2 Z M21,4 L3,4 L3,16.009 L6.17647059,16.0097087 L6.176,19.632 L10.3739638,16.0097087 L21,16.009 L21,4 Z" id="Path-3-Copy-2" fill="#000000" fill-rule="nonzero"></path>
</svg>
