<?xml version="1.0" encoding="UTF-8"?>
<svg width="24px" height="24px" viewBox="0 0 24 24" version="1.1" xmlns="http://www.w3.org/2000/svg" xmlns:xlink="http://www.w3.org/1999/xlink">
	<path d="M11.9120289,0.736251527 C12.0478019,0.694607167 12.1904768,0.754063423 12.2590661,0.871652418 L12.2868119,0.935092385 L14.7530449,8.97574669 C14.7853143,9.08095466 14.8717507,9.15826853 14.9760868,9.18094174 L15.0405463,9.18777482 L23.1064722,9.16923776 C23.2004409,9.16902181 23.289082,9.21284828 23.3459613,9.28764747 C23.4319233,9.40069209 23.4253853,9.55512144 23.3387098,9.66009291 L23.2887511,9.70803658 L16.7273395,14.6975063 C16.6469755,14.7586172 16.6040815,14.8547362 16.6093448,14.9524333 L16.6224887,15.0254796 L19.1353254,23.0971175 C19.1643078,23.1902138 19.1462392,23.2915879 19.0868771,23.3689379 C19.0004145,23.4816002 18.8497005,23.5158998 18.7256316,23.4598769 L18.6662384,23.4242832 L12.1826467,18.4484577 C12.0964626,18.3823158 11.9833326,18.3690875 11.8863701,18.4087726 L11.8173533,18.4484577 L5.33376161,23.4242832 C5.25641162,23.4836454 5.15503746,23.501714 5.06194123,23.4727315 C4.92634413,23.4305179 4.84208548,23.3009353 4.85179299,23.1651508 L4.86467461,23.0971175 L7.37751127,15.0254796 C7.40752118,14.9290829 7.38670193,14.8259068 7.32574086,14.7493812 L7.27266045,14.6975063 L0.711248863,9.70803658 C0.636449672,9.65115731 0.592838358,9.56251625 0.592838358,9.46854752 C0.593165532,9.32653181 0.692118778,9.2077908 0.824722541,9.17700287 L0.893527816,9.16923776 L8.95945371,9.18777482 C9.06949901,9.18802773 9.16889803,9.12829068 9.22138355,9.03531021 L9.2469551,8.97574669 L11.7131881,0.935092385 C11.7423766,0.839929146 11.8168657,0.765440037 11.9120289,0.736251527 Z M12,6.821 L11.1590347,9.56222057 C10.8796194,10.4731978 10.0704851,11.1113881 9.13220124,11.1813773 L8.95485733,11.1877695 L5.951,11.18 L8.4832571,13.1055089 C9.20527757,13.6545522 9.532793,14.5721806 9.33394105,15.4459286 L9.28711336,15.6199709 L8.367,18.574 L10.5997087,16.8618445 C11.3770553,16.2652706 12.4403338,16.2301781 13.2513195,16.7565667 L13.4002913,16.8618445 L15.632,18.574 L14.7128866,15.6199709 C14.4432663,14.7539068 14.7088042,13.8164646 15.3776379,13.2201098 L15.5167429,13.1055089 L18.048,11.18 L15.0451427,11.1877695 C14.0922798,11.1899594 13.243531,10.6054849 12.8994655,9.72975996 L12.8409653,9.56222057 L12,6.821 Z" id="Path-Copy-17" fill="#000000" fill-rule="nonzero"></path>
</svg>
