<?xml version="1.0" encoding="UTF-8"?>
<svg width="24px" height="24px" viewBox="0 0 24 24" version="1.1" xmlns="http://www.w3.org/2000/svg" xmlns:xlink="http://www.w3.org/1999/xlink">
    <title>shapesIcon</title>
    <g id="shapesIcon" stroke="none" stroke-width="1" fill="none" fill-rule="evenodd">
        <path d="M6.22322343,17.0009121 L2,17 C0.8954305,17 -1.77635684e-14,16.1045695 -1.77635684e-14,15 L-1.77635684e-14,2 C-1.77635684e-14,0.8954305 0.8954305,-3.55271368e-15 2,-3.55271368e-15 L15,-3.55271368e-15 C16.1045695,-3.55271368e-15 17,0.8954305 17,2 L17.0009121,6.22322343 C16.35741,6.0771343 15.6877129,6 15,6 L15,2 L2,2 L2,15 L6,15 L6,15 C6,15.6877129 6.0771343,16.35741 6.22322343,17.0009121 Z" id="Combined-Shape" fill="#000000" fill-rule="nonzero"></path>
        <path d="M15,6 C19.9705627,6 24,10.0294373 24,15 C24,19.9705627 19.9705627,24 15,24 C10.0294373,24 6,19.9705627 6,15 C6,10.0294373 10.0294373,6 15,6 Z M15,8 C11.1340068,8 8,11.1340068 8,15 C8,18.8659932 11.1340068,22 15,22 C18.8659932,22 22,18.8659932 22,15 C22,11.1340068 18.8659932,8 15,8 Z" id="Oval-Copy-62" fill="#000000" fill-rule="nonzero"></path>
    </g>
</svg>
