<?xml version="1.0" encoding="UTF-8"?>
<svg width="16px" height="16px" viewBox="0 0 16 16" version="1.1" xmlns="http://www.w3.org/2000/svg" xmlns:xlink="http://www.w3.org/1999/xlink">
        <path d="M11.597723,15.0419734 C12.4478178,15.0419734 13.2776724,14.900291 14.0872865,14.616926 C14.8969007,14.333561 15.4939911,13.9692347 15.8785579,13.5239469 C15.9392789,13.4834662 15.9696395,13.4429855 15.9696395,13.4025047 C15.9696395,13.362024 15.9797596,13.3114231 16,13.2507021 C16,13.0482985 15.9038583,12.8408349 15.711575,12.6283112 C15.5192916,12.4157875 15.3826692,12.3398861 15.3017078,12.4006072 C15.1802657,12.501809 15.0385832,12.5827704 14.8766603,12.6434915 C14.7147375,12.7042125 14.5426945,12.7345731 14.3605313,12.7345731 C14.1378874,12.7345731 13.9051233,12.6283112 13.6622391,12.4157875 C13.4193548,12.2032638 13.3181531,11.7427957 13.3586338,11.0343833 L13.3586338,11.0343833 L13.5104364,5.75165085 C13.5711575,4.15266287 13.2624921,2.88764073 12.5844402,1.95658444 C11.9063884,1.02552815 10.6363061,0.56 8.77419355,0.56 C6.72991777,0.56 4.88298545,0.985047438 3.23339658,1.83514231 C1.58380772,2.68523719 0.759013283,3.61629349 0.759013283,4.6283112 C0.759013283,5.23552182 0.956356736,5.75671094 1.35104364,6.19187856 C1.74573055,6.62704617 2.31752056,6.84462998 3.06641366,6.84462998 C3.89626818,6.84462998 4.52371917,6.60174573 4.9487666,6.11597723 C5.37381404,5.63020873 5.63693865,4.7598735 5.73814042,3.50497154 C5.77862113,2.99896268 5.97596458,2.66499684 6.33017078,2.503074 C6.68437698,2.34115117 7.0740038,2.26018975 7.49905123,2.26018975 C7.92409867,2.26018975 8.22770398,2.36139152 8.40986717,2.56379507 C8.59203036,2.76619861 8.68311195,3.18112587 8.68311195,3.80857685 L8.68311195,3.80857685 L8.59203036,6.78390892 C5.49525617,7.47208096 3.28905756,8.19061354 1.97343454,8.93950664 C0.657811512,9.68839975 0,10.6599367 0,11.8541176 C0,12.9268564 0.399746996,13.7263504 1.19924099,14.2525996 C1.99873498,14.7788488 2.97533207,15.0419734 4.12903226,15.0419734 C5.18153068,15.0419734 6.06704617,14.8749905 6.78557875,14.5410247 C7.50411132,14.2070588 8.09614168,13.6858697 8.56166983,12.9774573 C8.72359266,13.6049083 9.0626186,14.1058571 9.57874763,14.4803036 C10.0948767,14.8547502 10.7678684,15.0419734 11.597723,15.0419734 Z M6.70967742,12.8256546 C6.22390892,12.8256546 5.84440228,12.673852 5.5711575,12.3702467 C5.29791271,12.0666414 5.16129032,11.6618343 5.16129032,11.1558254 C5.16129032,10.2450095 5.42441493,9.54671727 5.95066414,9.06094877 C6.47691335,8.57518027 7.3371284,8.19061354 8.5313093,7.90724858 L8.5313093,7.90724858 L8.4402277,11.0040228 C8.35926629,11.7124352 8.15180266,12.1931436 7.81783681,12.446148 C7.48387097,12.6991524 7.1144845,12.8256546 6.70967742,12.8256546 Z" id="a" fill="#1E1E1E" fill-rule="nonzero"></path>
</svg>
